<?xml version="1.0" encoding="UTF-8" standalone="no"?>
<!DOCTYPE svg PUBLIC "-//W3C//DTD SVG 20010904//EN" "http://www.w3.org/TR/2001/REC-SVG-20010904/DTD/svg10.dtd">
<svg version="1.0" xmlns="http://www.w3.org/2000/svg" width="900px" height="766px" viewBox="0 0 2072.000000 1225.000000" preserveAspectRatio="xMidYMid meet">
<metadata>
Created by potrace 1.11, written by Peter Selinger 2001-2013
</metadata>
<g transform="translate(0.000000,1225.000000) scale(0.100000,-0.100000)" fill="#000000" stroke="none">
<path d="M9705 11950 c-2757 -113 -5251 -835 -7005 -2028 -384 -261 -677 -500 -993 -812 -434 -426 -742 -839 -977 -1308 -274 -548 -401 -1069 -401 -1652 -1 -383 47 -702 158 -1060 568 -1834 2613 -3386 5518 -4189 2369 -654 5116 -748 7612 -260 2499 489 4574 1535 5737 2892 603 704 946 1453 1031 2252 19 183 19 535 0 721 -95 904 -526 1753 -1280 2523 -1249 1275 -3245 2209 -5685 2660 -674 124 -1359 203 -2180 251 -242 14 -1266 21 -1535 10z m1200 -570 c520 -18 916 -47 1470 -110 574 -65 1290 -197 1880 -345 3104 -780 5216 -2421 5525 -4292 213 -1291 -424 -2560 -1805 -3598 -2182 -1639 -5861 -2427 -9470 -2029 -2280 251 -4331 972 -5730 2014 -536 399 -970 842 -1283 1310 -202 303 -368 652 -460 970 -77 264 -110 475 -119 755 -13 457 65 868 249 1300 432 1017 1413 1942 2812 2654 1886 960 4394 1456 6931 1371z"/>
<path d="M11234 10677 c-23 -40 -118 -215 -212 -389 -94 -174 -190 -351 -214 -393 l-43 -76 -95 8 c-124 10 -501 10 -615 0 l-90 -9 -61 109 c-34 59 -128 232 -209 383 -179 334 -234 430 -246 430 -5 0 -9 -39 -9 -87 0 -189 -38 -935 -65 -1301 -33 -432 -100 -706 -240 -987 -86 -172 -176 -296 -310 -430 -210 -211 -453 -341 -759 -407 -86 -19 -132 -22 -311 -22 -180 0 -225 3 -315 23 -575 123 -1006 490 -1159 986 -165 537 4 1168 482 1798 32 43 57 80 55 81 -4 4 -366 -94 -573 -155 -1920 -566 -3289 -1353 -4070 -2339 -237 -300 -443 -692 -540 -1029 -241 -838 -46 -1693 570 -2496 562 -733 1491 -1399 2623 -1882 19 -8 32 -10 29 -6 -2 4 -33 58 -67 118 -338 588 -463 1114 -360 1509 100 380 430 594 885 573 509 -23 1106 -336 1642 -861 73 -71 134 -128 136 -125 2 2 36 51 77 109 174 248 373 464 545 593 114 86 302 179 420 208 123 31 295 31 411 1 223 -59 404 -172 620 -387 166 -165 300 -336 453 -579 234 -371 494 -924 701 -1490 l44 -118 29 78 c117 313 192 498 322 789 58 130 229 461 311 602 103 175 226 358 331 492 97 122 306 331 403 403 422 313 832 312 1257 -3 170 -126 376 -350 538 -584 37 -55 72 -104 76 -109 5 -5 73 54 156 135 482 469 1002 761 1488 834 371 56 703 -47 880 -273 300 -381 222 -1030 -214 -1792 -39 -68 -70 -124 -68 -126 4 -4 252 108 425 191 1016 492 1809 1115 2307 1810 632 882 758 1842 359 2738 -571 1284 -2178 2357 -4549 3036 -269 77 -505 139 -505 134 0 -3 31 -46 69 -96 257 -343 434 -715 503 -1057 32 -163 32 -447 0 -597 -116 -532 -535 -949 -1100 -1092 -224 -57 -517 -66 -723 -22 -682 146 -1135 674 -1268 1481 -35 212 -78 869 -97 1465 -3 116 -9 224 -13 242 l-6 32 -41 -72z"/>
</g>
</svg>